<?xml version="1.0" encoding="UTF-8" standalone="no"?>
<!DOCTYPE svg PUBLIC "-//W3C//DTD SVG 1.1//EN" "http://www.w3.org/Graphics/SVG/1.1/DTD/svg11.dtd">
<svg width="100%" height="100%" viewBox="0 0 873 112" version="1.1" xmlns="http://www.w3.org/2000/svg" xmlns:xlink="http://www.w3.org/1999/xlink" xml:space="preserve" xmlns:serif="http://www.serif.com/" style="fill-rule:evenodd;clip-rule:evenodd;stroke-linejoin:round;stroke-miterlimit:2;">
    <g transform="matrix(5.55556,0,0,5.55556,99.835,111.04)">
        <path d="M0,-19.987L0,-12.999L-1,-12.999L-1,-6.999L-2,-6.999L-2,-2.999L-3,-2.999L-3,0L9,0L9,-1L9,-2L9,-2.999L8,-2.999L7,-2.999L6,-2.999L5,-2.999L4,-2.999L3.001,-2.999L2.001,-2.999L2.001,-3.999L2.001,-4.999L2.001,-5.999L3.001,-5.999L3.001,-6.999L3.001,-8L3.001,-9L3.001,-10L3.001,-11L3.001,-11.999L3.001,-12.999L4,-12.999L4,-13.999L4,-14.999L4,-15.999L4,-17L4,-18L4,-19L4,-19.987L0,-19.987Z" style="fill:rgb(43,43,43);fill-rule:nonzero;"/>
    </g>
    <g transform="matrix(5.55556,0,0,5.55556,399.835,111.04)">
        <path d="M0,-19.987L0,-19L-1,-19L-2,-19L-2,-18L-3,-18L-3,-17L-4,-17L-4,-15.999L-5,-15.999L-5,-14.999L-5.999,-14.999L-5.999,-11.999L-6.999,-11.999L-6.999,-5.999L-5.999,-5.999L-5.999,-3.999L-5,-3.999L-5,-2L-4,-2L-4,-1L-2,-1L-2,0L7,0L7,-1L8,-1L8,-2L8,-2.999L8,-3.999L7,-3.999L6,-3.999L5,-3.999L4,-3.999L3.001,-3.999L2.001,-3.999L1,-3.999L0,-3.999L0,-4.999L-1,-4.999L-2,-4.999L-2,-5.999L-2,-6.999L-3,-6.999L-3,-8L-3,-9L-3,-10L-3,-11L-2,-11L-2,-11.999L-2,-12.999L-1,-12.999L-1,-13.999L0,-13.999L0,-14.999L1,-14.999L1,-15.999L9,-15.999L9,-17L9,-18L9,-19L9,-19.987L0,-19.987Z" style="fill:rgb(43,43,43);fill-rule:nonzero;"/>
    </g>
    <g transform="matrix(5.55556,0,0,5.55556,572.06,111.04)">
        <path d="M0,-19.987L0,-15.999L-1,-15.999L-1,-9L-2,-9L-2,-2.999L-3.001,-2.999L-3.001,0L1,0L1,-1L1,-2L1,-2.999L2,-2.999L2,-3.999L2,-4.999L2,-5.999L2,-6.999L2,-8L2,-9L3,-9L3,-10L3,-11L3,-11.999L3,-12.999L3,-13.999L3,-14.999L3,-15.999L4,-15.999L4,-17L4,-18L4,-19L4,-19.987L0,-19.987Z" style="fill:rgb(43,43,43);fill-rule:nonzero;"/>
    </g>
    <g transform="matrix(5.55556,0,0,5.55556,633.17,111.04)">
        <path d="M0,-19.987L0,-18L-1,-18L-1,-15.999L-2,-15.999L-2,-13.999L-3,-13.999L-3,-11.999L-4,-11.999L-4,-10L-5,-10L-5,-8L-6,-8L-6,-5.999L-7,-5.999L-7,-2.999L-8,-2.999L-8,0L-5,0L-5,-1L-5,-2L-4,-2L-4,-2.999L-4,-3.999L-3,-3.999L-3,-4.999L-3,-5.999L2,-5.999L2,-3.999L3,-3.999L3,0L6,0L6,-1L6,-2L6,-2.999L6,-3.999L6,-4.999L6,-5.999L6,-6.999L6,-8L6,-9L6,-10L5,-10L5,-11L5,-11.999L5,-12.999L5,-13.999L5,-14.999L5,-15.999L5,-17L4,-17L4,-18L4,-19L4,-19.987L0,-19.987ZM-1,-10L-1,-11L0,-11L0,-11.999L0,-12.999L2,-12.999L2,-9L1,-9L0,-9L-1,-9L-1,-10Z" style="fill:rgb(43,43,43);fill-rule:nonzero;"/>
    </g>
    <g transform="matrix(5.55556,0,0,5.55556,44.28,111.04)">
        <path d="M0,-19.987L0,-18L-1,-18L-1,-15.999L-2,-15.999L-2,-13.999L-3,-13.999L-3,-11.999L-4,-11.999L-4,-10L-4.999,-10L-4.999,-8L-5.999,-8L-5.999,-5.999L-7,-5.999L-7,-2.999L-7.97,-2.999L-7.97,0L-4.999,0L-4.999,-1L-4.999,-2L-4,-2L-4,-2.999L-4,-3.999L-3,-3.999L-3,-4.999L-3,-5.999L2,-5.999L2,-3.999L3.001,-3.999L3.001,0L6,0L6,-1L6,-2L6,-2.999L6,-3.999L6,-4.999L6,-5.999L6,-6.999L6,-8L6,-9L6,-10L5,-10L5,-11L5,-11.999L5,-12.999L5,-13.999L5,-14.999L5,-15.999L5,-17L4.001,-17L4.001,-18L4.001,-19L4.001,-19.987L0,-19.987ZM-1,-10L-1,-11L0,-11L0,-11.999L0,-12.999L2,-12.999L2,-9L1,-9L0,-9L-1,-9L-1,-10Z" style="fill:rgb(43,43,43);fill-rule:nonzero;"/>
    </g>
    <g transform="matrix(5.55556,0,0,5.55556,538.725,111.04)">
        <path d="M0,-19.987L0,-18L-1,-18L-1,-11.999L-2,-11.999L-3,-11.999L-4,-11.999L-4.999,-11.999L-6,-11.999L-7,-11.999L-8,-11.999L-9,-11.999L-10,-11.999L-10,-12.999L-10,-13.999L-10,-14.999L-10,-15.999L-9,-15.999L-9,-17L-9,-18L-9,-19L-9,-19.987L-13,-19.987L-13,-17L-13.999,-17L-13.999,-9L-15,-9L-15,-2.999L-16,-2.999L-16,0L-12,0L-12,-1L-12,-2L-12,-2.999L-11,-2.999L-11,-3.999L-11,-4.999L-11,-5.999L-11,-6.999L-11,-8L-2,-8L-2,-4.999L-3,-4.999L-3,0L1,0L1,-1L1,-2L1,-2.999L1,-3.999L1,-4.999L1,-5.999L2,-5.999L2,-6.999L2,-8L2,-9L2,-10L2,-11L2,-11.999L3,-11.999L3,-12.999L3,-13.999L3,-14.999L3,-15.999L4.001,-15.999L4.001,-17L4.001,-18L4.001,-19L4.001,-19.987L0,-19.987Z" style="fill:rgb(43,43,43);fill-rule:nonzero;"/>
    </g>
    <g transform="matrix(5.55556,0,0,5.55556,172.06,111.04)">
        <path d="M0,-19.987L0,-17L-1,-17L-1,-10L-2,-10L-2,-4.999L-3.001,-4.999L-3.001,0L8,0L8,-1L8,-2L8,-2.999L7,-2.999L5.999,-2.999L5,-2.999L4,-2.999L3,-2.999L2,-2.999L2,-3.999L2,-4.999L2,-5.999L2,-6.999L3,-6.999L3,-8L3,-9L8,-9L8,-10L8,-11L8,-11.999L7,-11.999L5.999,-11.999L5,-11.999L4,-11.999L3,-11.999L3,-12.999L3,-13.999L3,-14.999L3,-15.999L3,-17L10,-17L10,-18L10,-19L10,-19.987L0,-19.987Z" style="fill:rgb(43,43,43);fill-rule:nonzero;"/>
    </g>
    <g transform="matrix(5.55556,0,0,5.55556,760.95,111.04)">
        <path d="M0,-19.987L0,-18L-1.001,-18L-1.001,-11.999L-2.001,-11.999L-2.001,-8L-3.001,-8L-3.001,-9L-3.001,-10L-4.001,-10L-4.001,-11L-4.001,-11.999L-5,-11.999L-5,-12.999L-5,-13.999L-6,-13.999L-6,-14.999L-7,-14.999L-7,-15.999L-7,-17L-8,-17L-8,-18L-8,-19L-9,-19L-9,-19.987L-13,-19.987L-13,-13.999L-14,-13.999L-14,-6.999L-15,-6.999L-15,-2.999L-16,-2.999L-16,0L-12.001,0L-12.001,-1L-12.001,-2L-12.001,-2.999L-11.001,-2.999L-11.001,-3.999L-11.001,-4.999L-11.001,-5.999L-11.001,-6.999L-11.001,-8L-10.001,-8L-10.001,-9L-10.001,-10L-10.001,-11L-10.001,-11.999L-10.001,-12.999L-9,-12.999L-9,-11L-8,-11L-8,-9L-7,-9L-7,-6.999L-6,-6.999L-6,-4.999L-5,-4.999L-5,-2.999L-4.001,-2.999L-4.001,-2L-3.001,-2L-3.001,0L1,0L1,-1L1,-2L1,-2.999L1,-3.999L1,-4.999L2,-4.999L2,-5.999L2,-6.999L2,-8L2,-9L2,-10L2,-11L2,-11.999L3,-11.999L3,-12.999L3,-13.999L3,-14.999L3,-15.999L4,-15.999L4,-17L4,-18L4,-19L4,-19.987L0,-19.987Z" style="fill:rgb(43,43,43);fill-rule:nonzero;"/>
    </g>
    <g transform="matrix(5.55556,0,0,5.55556,822.06,111.04)">
        <path d="M0,-19.987L0,-19L-1,-19L-2,-19L-2,-18L-3.001,-18L-3.001,-17L-4.001,-17L-4.001,-15.999L-5,-15.999L-5,-14.999L-6,-14.999L-6,-11.999L-7,-11.999L-7,-5.999L-6,-5.999L-6,-3.999L-5,-3.999L-5,-2L-4.001,-2L-4.001,-1L-2,-1L-2,0L7,0L7,-1L8,-1L8,-2L8,-2.999L8,-3.999L8,-4.999L9,-4.999L9,-5.999L9,-6.999L9,-8L9,-9L9,-10L8,-10L7,-10L5.999,-10L4.999,-10L4,-10L3,-10L2,-10L2,-6.999L4.999,-6.999L4.999,-3.999L4,-3.999L3,-3.999L2,-3.999L1,-3.999L0,-3.999L0,-4.999L-1,-4.999L-2,-4.999L-2,-5.999L-2,-6.999L-3.001,-6.999L-3.001,-8L-3.001,-9L-3.001,-10L-3.001,-11L-2,-11L-2,-11.999L-2,-12.999L-1,-12.999L-1,-13.999L0,-13.999L0,-14.999L1,-14.999L1,-15.999L9,-15.999L9,-17L9,-18L9,-19L9,-19.987L0,-19.987Z" style="fill:rgb(43,43,43);fill-rule:nonzero;"/>
    </g>
    <g transform="matrix(5.55556,0,0,5.55556,299.835,111.04)">
        <path d="M0,-19.987L0,-19L-1,-19L-1,-17L-2,-17L-2,-15.999L-3,-15.999L-3,-14.999L-4,-14.999L-4,-13.999L-5,-13.999L-5,-14.999L-5.999,-14.999L-5.999,-15.999L-5.999,-17L-6.999,-17L-6.999,-18L-6.999,-19L-6.999,-19.987L-11,-19.987L-11,-17L-10,-17L-10,-14.999L-9,-14.999L-9,-13.999L-8,-13.999L-8,-11.999L-6.999,-11.999L-6.999,-9L-8,-9L-8,-8L-9,-8L-9,-6.999L-10,-6.999L-10,-4.999L-11,-4.999L-11,-3.999L-12,-3.999L-12,-2.999L-13,-2.999L-13,-2L-14,-2L-14,0L-10,0L-10,-1L-9,-1L-9,-2L-8,-2L-8,-2.999L-8,-3.999L-6.999,-3.999L-6.999,-4.999L-5.999,-4.999L-5.999,-5.999L-4,-5.999L-4,-3.999L-3,-3.999L-3,-2L-2,-2L-2,0L2.001,0L2.001,-1L2.001,-2L1,-2L1,-2.999L1,-3.999L0,-3.999L0,-4.999L0,-5.999L-1,-5.999L-1,-6.999L-1,-8L-2,-8L-2,-9L-2,-10L-2,-11L-1,-11L-1,-11.999L0,-11.999L0,-12.999L0,-13.999L1,-13.999L1,-14.999L2.001,-14.999L2.001,-15.999L3.001,-15.999L3.001,-17L3.001,-18L4,-18L4,-19L4,-19.987L0,-19.987Z" style="fill:rgb(43,43,43);fill-rule:nonzero;"/>
    </g>
</svg>
