<?xml version="1.0" encoding="UTF-8" standalone="no"?>
<!DOCTYPE svg PUBLIC "-//W3C//DTD SVG 1.1//EN" "http://www.w3.org/Graphics/SVG/1.1/DTD/svg11.dtd">
<svg width="100%" height="100%" viewBox="0 0 560 42" version="1.1" xmlns="http://www.w3.org/2000/svg" xmlns:xlink="http://www.w3.org/1999/xlink" xml:space="preserve" xmlns:serif="http://www.serif.com/" style="fill-rule:evenodd;clip-rule:evenodd;stroke-linejoin:round;stroke-miterlimit:2;">
    <g transform="matrix(2.17212,0,0,2.17212,-615.019,-477.433)">
        <g transform="matrix(23.9397,0,0,23.9397,283.142,233.827)">
            <path d="M0,-0.586L0.439,-0.586L0.439,-0.513L0.146,-0.513L0.146,-0.329L0.366,-0.329L0.366,-0.256L0.146,-0.256L0.146,0L0,0L0,-0.586Z" style="fill-rule:nonzero;"/>
        </g>
        <g transform="matrix(23.9397,0,0,23.9397,295.416,233.827)">
            <path d="M0.439,-0.366L0.439,0L0.293,0L0.293,-0.073L0.22,-0.073L0.22,0L0.073,0L0.073,-0.073L0,-0.073L0,-0.366L0.146,-0.366L0.146,-0.073L0.22,-0.073L0.22,-0.146L0.293,-0.146L0.293,-0.366L0.439,-0.366Z" style="fill-rule:nonzero;"/>
        </g>
        <g transform="matrix(23.9397,0,0,23.9397,307.69,233.827)">
            <rect x="0" y="-0.586" width="0.146" height="0.586" style="fill-rule:nonzero;"/>
        </g>
        <g transform="matrix(23.9397,0,0,23.9397,312.95,233.827)">
            <rect x="0" y="-0.586" width="0.146" height="0.586" style="fill-rule:nonzero;"/>
        </g>
        <g transform="matrix(23.9397,0,0,23.9397,318.21,233.827)">
            <rect x="0" y="-0.366" width="0.366" height="0.073" style="fill-rule:nonzero;"/>
        </g>
        <g transform="matrix(23.9397,0,0,23.9397,328.73,233.827)">
            <path d="M0,-0.513L0,-0.366L0.073,-0.366L0.073,-0.293L0.22,-0.293L0.22,-0.22L0.366,-0.22L0.366,-0.073L0.146,-0.073L0.146,-0.22L0,-0.22L0,-0.073L0.073,-0.073L0.073,0L0.439,0L0.439,-0.073L0.513,-0.073L0.513,-0.22L0.439,-0.22L0.439,-0.293L0.293,-0.293L0.293,-0.366L0.146,-0.366L0.146,-0.513L0.366,-0.513L0.366,-0.366L0.513,-0.366L0.513,-0.513L0.439,-0.513L0.439,-0.586L0.073,-0.586L0.073,-0.513L0,-0.513Z" style="fill-rule:nonzero;"/>
        </g>
        <g transform="matrix(23.9397,0,0,23.9397,342.758,233.827)">
            <path d="M0.073,0L0.073,-0.366L0,-0.366L0,-0.439L0.073,-0.439L0.073,-0.513L0.22,-0.513L0.22,-0.439L0.293,-0.439L0.293,-0.366L0.22,-0.366L0.22,0L0.073,0Z" style="fill-rule:nonzero;"/>
        </g>
        <g transform="matrix(23.9397,0,0,23.9397,351.525,233.827)">
            <path d="M0.366,-0.366L0.366,-0.293L0.439,-0.293L0.439,0L0.366,0L0.073,0L0.073,-0.073L0,-0.073L0,-0.146L0.073,-0.146L0.073,-0.22L0.293,-0.22L0.293,-0.293L0.073,-0.293L0.073,-0.366L0.366,-0.366ZM0.183,-0.146L0.183,-0.073L0.293,-0.073L0.293,-0.146L0.183,-0.146Z" style="fill-rule:nonzero;"/>
        </g>
        <g transform="matrix(23.9397,0,0,23.9397,363.798,233.827)">
            <path d="M0,-0.073L0.073,-0.073L0.073,0L0.366,0L0.366,-0.073L0.439,-0.073L0.439,-0.146L0.293,-0.146L0.293,-0.073L0.146,-0.073L0.146,-0.293L0.293,-0.293L0.293,-0.22L0.439,-0.22L0.439,-0.293L0.366,-0.293L0.366,-0.366L0.073,-0.366L0.073,-0.293L0,-0.293L0,-0.073Z" style="fill-rule:nonzero;"/>
        </g>
        <g transform="matrix(23.9397,0,0,23.9397,376.072,233.827)">
            <path d="M0,0L0,-0.586L0.146,-0.586L0.146,-0.22L0.22,-0.22L0.22,-0.293L0.293,-0.293L0.293,-0.366L0.439,-0.366L0.439,-0.293L0.366,-0.293L0.366,-0.22L0.293,-0.22L0.293,-0.146L0.366,-0.146L0.366,-0.073L0.439,-0.073L0.439,0L0.293,0L0.293,-0.073L0.22,-0.073L0.22,-0.146L0.146,-0.146L0.146,0L0,0Z" style="fill-rule:nonzero;"/>
        </g>
        <g transform="matrix(23.9397,0,0,23.9397,395.36,233.827)">
            <path d="M0,0L0.146,0L0.146,-0.073L0.293,-0.073L0.293,0L0.439,0L0.439,-0.073L0.366,-0.073L0.366,-0.146L0.293,-0.146L0.293,-0.22L0.366,-0.22L0.366,-0.293L0.439,-0.293L0.439,-0.366L0.293,-0.366L0.293,-0.293L0.146,-0.293L0.146,-0.366L0,-0.366L0,-0.293L0.073,-0.293L0.073,-0.22L0.146,-0.22L0.146,-0.146L0.073,-0.146L0.073,-0.073L0,-0.073L0,0Z" style="fill-rule:nonzero;"/>
        </g>
        <g transform="matrix(23.9397,0,0,23.9397,414.647,233.827)">
            <path d="M0.073,-0.439L0,-0.439L0,0L0.146,0L0.146,-0.146L0.366,-0.146L0.366,0L0.513,0L0.513,-0.439L0.439,-0.439L0.439,-0.513L0.366,-0.513L0.366,-0.586L0.146,-0.586L0.146,-0.513L0.073,-0.513L0.073,-0.439ZM0.146,-0.439L0.22,-0.439L0.22,-0.513L0.293,-0.513L0.293,-0.439L0.366,-0.439L0.366,-0.22L0.146,-0.22L0.146,-0.439Z" style="fill-rule:nonzero;"/>
        </g>
        <g transform="matrix(23.9397,0,0,23.9397,428.674,233.827)">
            <path d="M0.366,-0.366L0.366,-0.293L0.439,-0.293L0.439,-0.073L0.366,-0.073L0.366,0L0.146,0L0.146,0.22L0,0.22L0,-0.366L0.366,-0.366ZM0.146,-0.293L0.146,-0.073L0.293,-0.073L0.293,-0.293L0.146,-0.293Z" style="fill-rule:nonzero;"/>
        </g>
        <g transform="matrix(23.9397,0,0,23.9397,440.948,233.827)">
            <path d="M0.366,-0.366L0.366,-0.293L0.439,-0.293L0.439,-0.073L0.366,-0.073L0.366,0L0.146,0L0.146,0.22L0,0.22L0,-0.366L0.366,-0.366ZM0.146,-0.293L0.146,-0.073L0.293,-0.073L0.293,-0.293L0.146,-0.293Z" style="fill-rule:nonzero;"/>
        </g>
        <g transform="matrix(23.9397,0,0,23.9397,453.222,233.827)">
            <rect x="0" y="-0.586" width="0.146" height="0.586" style="fill-rule:nonzero;"/>
        </g>
        <g transform="matrix(23.9397,0,0,23.9397,458.482,233.827)">
            <path d="M0,-0.439L0.146,-0.439L0.146,-0.586L0,-0.586L0,-0.439ZM0,0L0,-0.366L0.146,-0.366L0.146,0L0,0Z" style="fill-rule:nonzero;"/>
        </g>
        <g transform="matrix(23.9397,0,0,23.9397,463.742,233.827)">
            <path d="M0.073,0L0.073,-0.073L0,-0.073L0,-0.293L0.073,-0.293L0.073,-0.366L0.366,-0.366L0.366,-0.293L0.439,-0.293L0.439,-0.146L0.146,-0.146L0.146,-0.073L0.439,-0.073L0.439,0L0.073,0ZM0.293,-0.22L0.293,-0.293L0.146,-0.293L0.146,-0.22L0.293,-0.22Z" style="fill-rule:nonzero;"/>
        </g>
        <g transform="matrix(23.9397,0,0,23.9397,476.016,233.827)">
            <path d="M0.073,0L0.073,-0.073L0,-0.073L0,-0.293L0.073,-0.293L0.073,-0.366L0.293,-0.366L0.293,-0.586L0.439,-0.586L0.439,0L0.073,0ZM0.293,-0.073L0.293,-0.293L0.146,-0.293L0.146,-0.073L0.293,-0.073Z" style="fill-rule:nonzero;"/>
        </g>
        <g transform="matrix(23.9397,0,0,23.9397,491.797,233.827)">
            <path d="M0,0L0.146,0L0.146,-0.366L0.22,-0.366L0.22,-0.22L0.293,-0.22L0.293,-0.073L0.366,-0.073L0.366,-0.22L0.439,-0.22L0.439,-0.366L0.513,-0.366L0.513,0L0.659,0L0.659,-0.586L0.513,-0.586L0.513,-0.513L0.439,-0.513L0.439,-0.366L0.366,-0.366L0.366,-0.22L0.293,-0.22L0.293,-0.366L0.22,-0.366L0.22,-0.513L0.146,-0.513L0.146,-0.586L0,-0.586L0,0Z" style="fill-rule:nonzero;"/>
        </g>
        <g transform="matrix(23.9397,0,0,23.9397,509.33,233.827)">
            <path d="M0.366,-0.366L0.366,-0.293L0.439,-0.293L0.439,0L0.366,0L0.073,0L0.073,-0.073L0,-0.073L0,-0.146L0.073,-0.146L0.073,-0.22L0.293,-0.22L0.293,-0.293L0.073,-0.293L0.073,-0.366L0.366,-0.366ZM0.183,-0.146L0.183,-0.073L0.293,-0.073L0.293,-0.146L0.183,-0.146Z" style="fill-rule:nonzero;"/>
        </g>
        <g transform="matrix(23.9397,0,0,23.9397,521.604,233.827)">
            <path d="M0.073,0L0.073,-0.366L0,-0.366L0,-0.439L0.073,-0.439L0.073,-0.513L0.22,-0.513L0.22,-0.439L0.293,-0.439L0.293,-0.366L0.22,-0.366L0.22,0L0.073,0Z" style="fill-rule:nonzero;"/>
        </g>
        <g transform="matrix(23.9397,0,0,23.9397,530.371,233.827)">
            <path d="M0,0L0,-0.586L0.146,-0.586L0.146,-0.293L0.22,-0.293L0.22,-0.366L0.366,-0.366L0.366,-0.293L0.439,-0.293L0.439,0L0.293,0L0.293,-0.293L0.22,-0.293L0.22,-0.22L0.146,-0.22L0.146,0L0,0Z" style="fill-rule:nonzero;"/>
        </g>
    </g>
</svg>
