<?xml version="1.0" encoding="UTF-8" standalone="no"?>
<!DOCTYPE svg PUBLIC "-//W3C//DTD SVG 1.1//EN" "http://www.w3.org/Graphics/SVG/1.1/DTD/svg11.dtd">
<svg width="100%" height="100%" viewBox="0 0 802 52" version="1.1" xmlns="http://www.w3.org/2000/svg" xmlns:xlink="http://www.w3.org/1999/xlink" xml:space="preserve" xmlns:serif="http://www.serif.com/" style="fill-rule:evenodd;clip-rule:evenodd;stroke-linejoin:round;stroke-miterlimit:2;">
    <g transform="matrix(1,0,0,1,-283.142,-196.327)">
        <g transform="matrix(64,0,0,64,283.142,233.827)">
            <path d="M0,-0.513L0,-0.366L0.073,-0.366L0.073,-0.293L0.22,-0.293L0.22,-0.22L0.366,-0.22L0.366,-0.073L0.146,-0.073L0.146,-0.22L0,-0.22L0,-0.073L0.073,-0.073L0.073,0L0.439,0L0.439,-0.073L0.513,-0.073L0.513,-0.22L0.439,-0.22L0.439,-0.293L0.293,-0.293L0.293,-0.366L0.146,-0.366L0.146,-0.513L0.366,-0.513L0.366,-0.366L0.513,-0.366L0.513,-0.513L0.439,-0.513L0.439,-0.586L0.073,-0.586L0.073,-0.513L0,-0.513Z" style="fill-rule:nonzero;"/>
        </g>
        <g transform="matrix(64,0,0,64,320.642,233.827)">
            <path d="M0.073,-0.366L0.073,-0.293L0,-0.293L0,-0.073L0.073,-0.073L0.073,0L0.366,0L0.366,-0.073L0.439,-0.073L0.439,-0.293L0.366,-0.293L0.366,-0.366L0.146,-0.366L0.073,-0.366ZM0.146,-0.073L0.146,-0.293L0.293,-0.293L0.293,-0.073L0.146,-0.073Z" style="fill-rule:nonzero;"/>
        </g>
        <g transform="matrix(64,0,0,64,353.455,233.827)">
            <path d="M0.073,0L0.073,-0.293L0,-0.293L0,-0.366L0.073,-0.366L0.073,-0.439L0.146,-0.439L0.146,-0.513L0.366,-0.513L0.366,-0.439L0.22,-0.439L0.22,-0.366L0.293,-0.366L0.293,-0.293L0.22,-0.293L0.22,0L0.073,0Z" style="fill-rule:nonzero;"/>
        </g>
        <g transform="matrix(64,0,0,64,381.58,233.827)">
            <path d="M0.073,0L0.073,-0.366L0,-0.366L0,-0.439L0.073,-0.439L0.073,-0.513L0.22,-0.513L0.22,-0.439L0.293,-0.439L0.293,-0.366L0.22,-0.366L0.22,0L0.073,0Z" style="fill-rule:nonzero;"/>
        </g>
        <g transform="matrix(64,0,0,64,405.017,233.827)">
            <path d="M0.293,-0.293L0.439,-0.293L0.439,-0.073L0.513,-0.073L0.513,-0.22L0.586,-0.22L0.586,-0.366L0.732,-0.366L0.732,-0.22L0.659,-0.22L0.659,-0.073L0.586,-0.073L0.586,0L0.366,0L0.366,-0.073L0.293,-0.073L0.366,-0.073L0.293,-0.073L0.293,0L0.146,0L0.146,-0.073L0.073,-0.073L0.073,-0.22L0,-0.22L0,-0.366L0.146,-0.366L0.146,-0.22L0.22,-0.22L0.22,-0.073L0.293,-0.073L0.293,-0.293Z" style="fill-rule:nonzero;"/>
        </g>
        <g transform="matrix(64,0,0,64,456.58,233.827)">
            <path d="M0.366,-0.366L0.366,-0.293L0.439,-0.293L0.439,0L0.366,0L0.073,0L0.073,-0.073L0,-0.073L0,-0.146L0.073,-0.146L0.073,-0.22L0.293,-0.22L0.293,-0.293L0.073,-0.293L0.073,-0.366L0.366,-0.366ZM0.183,-0.146L0.183,-0.073L0.293,-0.073L0.293,-0.146L0.183,-0.146Z" style="fill-rule:nonzero;"/>
        </g>
        <g transform="matrix(64,0,0,64,489.392,233.827)">
            <path d="M0,0L0.146,0L0.146,-0.22L0.22,-0.22L0.22,-0.293L0.366,-0.293L0.366,-0.366L0.22,-0.366L0.22,-0.293L0.146,-0.293L0.146,-0.366L0,-0.366L0,0Z" style="fill-rule:nonzero;"/>
        </g>
        <g transform="matrix(64,0,0,64,517.517,233.827)">
            <path d="M0.073,0L0.073,-0.073L0,-0.073L0,-0.293L0.073,-0.293L0.073,-0.366L0.366,-0.366L0.366,-0.293L0.439,-0.293L0.439,-0.146L0.146,-0.146L0.146,-0.073L0.439,-0.073L0.439,0L0.073,0ZM0.293,-0.22L0.293,-0.293L0.146,-0.293L0.146,-0.22L0.293,-0.22Z" style="fill-rule:nonzero;"/>
        </g>
        <g transform="matrix(64,0,0,64,559.705,233.827)">
            <path d="M0,-0.586L0.439,-0.586L0.439,-0.513L0.513,-0.513L0.513,-0.073L0.439,-0.073L0.439,0L0,0L0,-0.586ZM0.146,-0.513L0.146,-0.073L0.366,-0.073L0.366,-0.513L0.146,-0.513Z" style="fill-rule:nonzero;"/>
        </g>
        <g transform="matrix(64,0,0,64,597.205,233.827)">
            <path d="M0.073,0L0.073,-0.073L0,-0.073L0,-0.293L0.073,-0.293L0.073,-0.366L0.366,-0.366L0.366,-0.293L0.439,-0.293L0.439,-0.146L0.146,-0.146L0.146,-0.073L0.439,-0.073L0.439,0L0.073,0ZM0.293,-0.22L0.293,-0.293L0.146,-0.293L0.146,-0.22L0.293,-0.22Z" style="fill-rule:nonzero;"/>
        </g>
        <g transform="matrix(64,0,0,64,630.017,233.827)">
            <path d="M0,-0.366L0.146,-0.366L0.146,-0.22L0.22,-0.22L0.22,-0.073L0.293,-0.073L0.293,-0.22L0.366,-0.22L0.366,-0.366L0.439,-0.366L0.439,-0.22L0.366,-0.22L0.366,-0.073L0.293,-0.073L0.293,0L0.146,0L0.146,-0.073L0.073,-0.073L0.073,-0.22L0,-0.22L0,-0.366Z" style="fill-rule:nonzero;"/>
        </g>
        <g transform="matrix(64,0,0,64,681.58,233.827)">
            <path d="M0,0L0.146,0L0.146,-0.073L0.293,-0.073L0.293,0L0.439,0L0.439,-0.073L0.366,-0.073L0.366,-0.146L0.293,-0.146L0.293,-0.22L0.366,-0.22L0.366,-0.293L0.439,-0.293L0.439,-0.366L0.293,-0.366L0.293,-0.293L0.146,-0.293L0.146,-0.366L0,-0.366L0,-0.293L0.073,-0.293L0.073,-0.22L0.146,-0.22L0.146,-0.146L0.073,-0.146L0.073,-0.073L0,-0.073L0,0Z" style="fill-rule:nonzero;"/>
        </g>
        <g transform="matrix(64,0,0,64,733.142,233.827)">
            <path d="M0.073,-0.439L0,-0.439L0,0L0.146,0L0.146,-0.146L0.366,-0.146L0.366,0L0.513,0L0.513,-0.439L0.439,-0.439L0.439,-0.513L0.366,-0.513L0.366,-0.586L0.146,-0.586L0.146,-0.513L0.073,-0.513L0.073,-0.439ZM0.146,-0.439L0.22,-0.439L0.22,-0.513L0.293,-0.513L0.293,-0.439L0.366,-0.439L0.366,-0.22L0.146,-0.22L0.146,-0.439Z" style="fill-rule:nonzero;"/>
        </g>
        <g transform="matrix(64,0,0,64,770.642,233.827)">
            <path d="M0.366,-0.366L0.366,-0.293L0.439,-0.293L0.439,-0.073L0.366,-0.073L0.366,0L0.146,0L0.146,0.22L0,0.22L0,-0.366L0.366,-0.366ZM0.146,-0.293L0.146,-0.073L0.293,-0.073L0.293,-0.293L0.146,-0.293Z" style="fill-rule:nonzero;"/>
        </g>
        <g transform="matrix(64,0,0,64,803.455,233.827)">
            <path d="M0.366,-0.366L0.366,-0.293L0.439,-0.293L0.439,-0.073L0.366,-0.073L0.366,0L0.146,0L0.146,0.22L0,0.22L0,-0.366L0.366,-0.366ZM0.146,-0.293L0.146,-0.073L0.293,-0.073L0.293,-0.293L0.146,-0.293Z" style="fill-rule:nonzero;"/>
        </g>
        <g transform="matrix(64,0,0,64,836.267,233.827)">
            <rect x="0" y="-0.586" width="0.146" height="0.586" style="fill-rule:nonzero;"/>
        </g>
        <g transform="matrix(64,0,0,64,850.33,233.827)">
            <path d="M0,-0.439L0.146,-0.439L0.146,-0.586L0,-0.586L0,-0.439ZM0,0L0,-0.366L0.146,-0.366L0.146,0L0,0Z" style="fill-rule:nonzero;"/>
        </g>
        <g transform="matrix(64,0,0,64,864.392,233.827)">
            <path d="M0.073,0L0.073,-0.073L0,-0.073L0,-0.293L0.073,-0.293L0.073,-0.366L0.366,-0.366L0.366,-0.293L0.439,-0.293L0.439,-0.146L0.146,-0.146L0.146,-0.073L0.439,-0.073L0.439,0L0.073,0ZM0.293,-0.22L0.293,-0.293L0.146,-0.293L0.146,-0.22L0.293,-0.22Z" style="fill-rule:nonzero;"/>
        </g>
        <g transform="matrix(64,0,0,64,897.205,233.827)">
            <path d="M0.073,0L0.073,-0.073L0,-0.073L0,-0.293L0.073,-0.293L0.073,-0.366L0.293,-0.366L0.293,-0.586L0.439,-0.586L0.439,0L0.073,0ZM0.293,-0.073L0.293,-0.293L0.146,-0.293L0.146,-0.073L0.293,-0.073Z" style="fill-rule:nonzero;"/>
        </g>
        <g transform="matrix(64,0,0,64,939.392,233.827)">
            <path d="M0,0L0.146,0L0.146,-0.366L0.22,-0.366L0.22,-0.22L0.293,-0.22L0.293,-0.073L0.366,-0.073L0.366,-0.22L0.439,-0.22L0.439,-0.366L0.513,-0.366L0.513,0L0.659,0L0.659,-0.586L0.513,-0.586L0.513,-0.513L0.439,-0.513L0.439,-0.366L0.366,-0.366L0.366,-0.22L0.293,-0.22L0.293,-0.366L0.22,-0.366L0.22,-0.513L0.146,-0.513L0.146,-0.586L0,-0.586L0,0Z" style="fill-rule:nonzero;"/>
        </g>
        <g transform="matrix(64,0,0,64,986.267,233.827)">
            <path d="M0.366,-0.366L0.366,-0.293L0.439,-0.293L0.439,0L0.366,0L0.073,0L0.073,-0.073L0,-0.073L0,-0.146L0.073,-0.146L0.073,-0.22L0.293,-0.22L0.293,-0.293L0.073,-0.293L0.073,-0.366L0.366,-0.366ZM0.183,-0.146L0.183,-0.073L0.293,-0.073L0.293,-0.146L0.183,-0.146Z" style="fill-rule:nonzero;"/>
        </g>
        <g transform="matrix(64,0,0,64,1019.08,233.827)">
            <path d="M0.073,0L0.073,-0.366L0,-0.366L0,-0.439L0.073,-0.439L0.073,-0.513L0.22,-0.513L0.22,-0.439L0.293,-0.439L0.293,-0.366L0.22,-0.366L0.22,0L0.073,0Z" style="fill-rule:nonzero;"/>
        </g>
        <g transform="matrix(64,0,0,64,1042.52,233.827)">
            <path d="M0,0L0,-0.586L0.146,-0.586L0.146,-0.293L0.22,-0.293L0.22,-0.366L0.366,-0.366L0.366,-0.293L0.439,-0.293L0.439,0L0.293,0L0.293,-0.293L0.22,-0.293L0.22,-0.22L0.146,-0.22L0.146,0L0,0Z" style="fill-rule:nonzero;"/>
        </g>
    </g>
</svg>
